<svg width="532" height="62" viewBox="0 0 532 62" fill="none" xmlns="http://www.w3.org/2000/svg">
<g filter="url(#filter0_d_1_92)">
<path d="M54.6714 11.0991C54.8574 13.4551 54.8574 17.1131 54.6714 19.4691C53.6794 19.5931 51.8194 19.6551 49.3394 19.6551C49.3394 24.4911 49.2774 28.9551 49.2154 31.4971C47.2934 31.7451 42.1474 31.6831 39.9774 31.4971C39.7914 26.1651 39.7914 5.70514 39.9774 0.993133C41.6514 0.745136 47.0454 0.683133 49.2154 0.993133C49.2774 3.28714 49.2774 6.94513 49.3394 10.9751C51.5094 10.9751 53.3694 11.0371 54.6714 11.0991ZM32.5994 29.1411C28.1974 29.3891 6.00143 29.4511 0.97943 29.1411C0.85543 24.3671 0.85543 6.75914 0.97943 2.04713C3.39743 1.79913 7.92343 1.86114 10.0314 2.04713L10.0314 8.37113C13.9994 8.30914 19.6414 8.30914 23.6094 8.37113L23.6094 2.04713C26.0274 1.86114 30.1814 1.86114 32.5994 2.04713C32.7854 7.62714 32.7854 26.6611 32.5994 29.1411ZM10.0314 15.8731L10.0314 21.3911C13.0074 21.5151 20.9434 21.5151 23.6094 21.3911L23.6094 15.8731C19.6414 15.9351 13.9374 15.9351 10.0314 15.8731ZM26.2134 33.5431C45.4954 33.5431 50.2694 37.6351 50.2694 45.7571C50.2694 54.6851 44.5654 57.9711 26.2134 57.9711C6.93143 57.9711 2.15743 53.8791 2.15743 45.7571C2.15743 36.8291 7.86143 33.5431 26.2134 33.5431ZM26.2134 50.2831C39.2954 50.2831 40.8454 48.7951 40.8454 45.7571C40.8454 42.9051 39.2334 41.2311 26.2134 41.2311C13.1314 41.2311 11.5814 42.7191 11.5814 45.7571C11.5814 48.6091 13.1934 50.2831 26.2134 50.2831ZM92.3626 18.7871C93.9126 18.7251 96.3926 18.7251 99.0586 18.7251L99.0586 13.4551C96.4546 13.4551 93.9746 13.3931 92.3626 13.3311C92.1766 10.9751 92.1766 7.37914 92.3626 5.02314C93.9126 4.96113 96.4546 4.96113 99.1206 4.96113C99.1206 3.22513 99.1206 1.86114 99.1826 0.993133C100.857 0.745136 106.251 0.683133 108.421 0.993133C108.545 7.68914 108.607 25.9791 108.421 32.1171C106.499 32.3651 101.353 32.3031 99.1826 32.1171C99.1206 31.0631 99.1206 29.3271 99.1206 27.2191C96.5166 27.2191 93.9746 27.1571 92.3626 27.0951C92.1766 24.7391 92.1766 21.1431 92.3626 18.7871ZM89.6346 28.5211C85.4806 28.7691 63.4706 28.8311 58.6346 28.5211C58.3866 21.7631 58.3866 8.37113 58.6346 2.04713C62.4786 1.79913 84.9226 1.79913 89.6346 2.04713C89.9446 8.80514 89.9446 22.6311 89.6346 28.5211ZM67.5626 9.79713C67.4386 12.0291 67.4386 18.5391 67.5626 20.7711C70.8486 20.8951 77.5446 20.9571 80.8306 20.7711C80.9546 18.6011 80.9546 12.0291 80.8306 9.79713C77.6066 9.67314 71.4686 9.73514 67.5626 9.79713ZM85.4186 33.2951C104.701 33.2951 109.475 37.3871 109.475 45.5091C109.475 54.4371 103.771 57.7231 85.4186 57.7231C66.1366 57.7231 61.3626 53.6311 61.3626 45.5091C61.3626 36.5811 67.0666 33.2951 85.4186 33.2951ZM85.4186 50.0351C98.5006 50.0351 100.051 48.5471 100.051 45.5091C100.051 42.6571 98.4386 40.9831 85.4186 40.9831C72.3366 40.9831 70.7866 42.4711 70.7866 45.5091C70.7866 48.3611 72.3986 50.0351 85.4186 50.0351ZM167.316 29.6991C167.564 31.8691 167.564 34.8451 167.316 37.2631C161.984 37.6351 121.312 37.5111 113.996 37.2631C113.748 35.1551 113.748 31.9931 113.996 29.6991C119.018 29.6371 127.264 29.5751 135.82 29.5751L135.82 27.0951C128.194 27.0951 121.126 26.9711 118.026 26.8471C117.778 23.4371 117.654 16.5551 118.026 10.4791L153.304 10.4791L153.304 8.18514L118.15 8.18514C117.902 6.26314 117.902 2.48114 118.15 0.869134C136.192 0.683133 155.04 0.621134 162.666 0.807135C162.976 3.22513 162.976 14.6951 162.666 17.3611L127.388 17.3611L127.388 19.6551L163.286 19.6551C163.534 21.8871 163.41 24.8011 163.286 26.8471C161.488 26.9711 153.986 27.0951 145.492 27.0951L145.492 29.6371C155.598 29.6371 164.588 29.6991 167.316 29.6991ZM117.22 40.1151C122.18 39.8671 158.264 39.8051 163.906 40.1151C164.278 45.2611 164.092 53.9411 163.906 56.9171C161.674 57.0411 156.652 57.0411 154.42 56.9171C154.296 53.8171 154.358 50.9651 154.42 47.8651C140.718 47.8651 121.87 48.0511 117.22 47.8651C116.972 45.5091 116.972 42.4711 117.22 40.1151ZM238.795 10.4791C238.981 12.8351 238.981 16.4931 238.795 18.8491C237.803 18.9731 235.943 19.0351 233.463 19.0351C233.463 23.3131 233.401 27.2191 233.339 29.6371C231.417 29.8851 226.271 29.8231 224.101 29.6371C223.915 24.3051 223.915 5.70514 224.101 0.993133C225.775 0.745136 231.169 0.683133 233.339 0.993133C233.401 3.28714 233.401 6.69713 233.463 10.3551C235.633 10.3551 237.493 10.4171 238.795 10.4791ZM218.583 26.3511C213.623 26.5371 190.745 26.5991 185.102 26.3511C184.792 20.4611 184.792 6.88314 185.102 2.04713C187.024 1.79913 192.109 1.86114 194.341 2.04713C194.465 6.38713 194.403 14.7571 194.341 18.1671C198.743 18.0431 213.933 18.0431 218.583 18.1671C218.831 20.5231 218.831 23.9951 218.583 26.3511ZM187.272 32.4271C191.117 32.1791 231.665 32.2411 233.339 32.4271C233.587 37.3251 233.587 52.3291 233.339 56.9791C229.185 57.3511 192.109 57.4131 187.272 56.9791C186.962 50.2211 187.086 38.6891 187.272 32.4271ZM224.225 49.2291C224.349 47.4311 224.349 42.4711 224.225 40.2391C220.753 40.0531 200.479 40.1151 196.387 40.2391C196.263 42.1611 196.201 46.7491 196.387 49.2291C199.239 49.4151 221.621 49.3531 224.225 49.2291ZM283.244 56.7931C282.996 49.6011 283.058 8.18514 283.244 0.993133C284.918 0.621134 290.374 0.683133 292.544 0.993133C292.792 9.48714 292.792 49.4151 292.544 56.7931C290.622 57.0411 285.414 56.9791 283.244 56.7931ZM263.342 52.6391C263.342 48.0511 263.404 15.7491 263.342 11.2231C259.498 11.3471 246.602 11.3471 241.89 11.2231C241.642 8.80514 241.642 5.02314 241.89 2.72914C246.85 2.48114 267.124 2.41913 272.58 2.72914C273.014 9.92114 273.138 45.4471 272.766 52.6391C271.154 52.9491 265.574 52.8871 263.342 52.6391ZM349.579 0.993133C349.827 9.48714 349.827 49.4151 349.579 56.7931C347.657 57.0411 342.449 56.9791 340.279 56.7931C340.155 53.4451 340.093 42.5331 340.093 31.1871C336.497 31.1871 333.025 31.1251 331.909 31.0011C331.661 28.6451 331.661 24.5531 331.909 22.1971C333.397 22.1351 336.807 22.0731 340.155 22.0731C340.155 12.4631 340.217 3.90714 340.279 0.993133C341.953 0.621134 347.409 0.683133 349.579 0.993133ZM309.837 44.3311C315.355 44.1451 327.693 44.2071 332.901 44.3311C333.149 46.6871 333.149 50.2831 332.901 52.6391C329.057 52.8251 305.931 52.8871 300.289 52.6391C299.855 45.3231 299.917 30.6911 300.289 23.5611C304.505 23.4371 315.603 23.4991 319.013 23.5611C319.013 20.0891 319.013 14.1371 319.075 11.0371C315.169 11.0991 304.505 11.1611 300.537 11.0371C300.289 8.68113 300.289 5.08514 300.537 2.72914C304.443 2.48114 324.345 2.48114 328.561 2.72914C328.995 9.98314 328.933 24.6771 328.561 31.8071C324.345 32.0551 315.975 31.8691 309.899 31.8071C309.899 35.2791 309.899 41.2311 309.837 44.3311ZM423.166 21.5771C423.414 23.9331 423.414 28.0251 423.166 30.3811C422.174 30.5051 420.252 30.5671 417.648 30.5671C417.648 42.0991 417.586 53.2591 417.462 56.7931C415.54 57.0411 410.332 56.9791 408.162 56.7931C407.914 49.6011 407.976 8.18514 408.162 0.993133C409.836 0.621134 415.292 0.683133 417.462 0.993133C417.586 4.27914 417.648 12.4011 417.648 21.4531C419.942 21.4531 421.802 21.5151 423.166 21.5771ZM368.978 2.72914C373.938 2.48114 394.088 2.41913 399.544 2.72914C399.978 9.92114 400.102 45.4471 399.73 52.6391C398.118 52.9491 392.538 52.8871 390.306 52.6391C390.306 48.0511 390.368 15.7491 390.306 11.2231C386.462 11.3471 373.69 11.3471 368.978 11.2231C368.73 8.80514 368.73 5.02314 368.978 2.72914ZM467.367 56.7931C467.119 49.6011 467.181 8.18514 467.367 0.993133C469.041 0.621134 474.497 0.683133 476.667 0.993133C476.915 9.48714 476.915 49.4151 476.667 56.7931C474.745 57.0411 469.537 56.9791 467.367 56.7931ZM447.465 52.6391C447.465 48.0511 447.527 15.7491 447.465 11.2231C443.621 11.3471 430.725 11.3471 426.013 11.2231C425.765 8.80514 425.765 5.02314 426.013 2.72914C430.973 2.48114 451.247 2.41913 456.703 2.72914C457.137 9.92114 457.261 45.4471 456.889 52.6391C455.277 52.9491 449.697 52.8871 447.465 52.6391ZM500.653 48.8571C499.165 46.5631 497.491 43.2771 496.499 40.3631C503.381 36.8911 514.665 31.6211 520.555 28.9551C514.665 26.2891 503.381 21.0191 496.499 17.5471C497.491 14.6331 499.165 11.3471 500.653 9.05314C510.015 13.5171 524.647 20.5851 531.715 24.1811C531.901 27.4051 531.901 30.6291 531.715 33.7291C524.647 37.3251 510.015 44.3931 500.653 48.8571Z" fill="white"/>
</g>
<defs>
<filter id="filter0_d_1_92" x="0.855469" y="0.621124" width="531.046" height="61.35" filterUnits="userSpaceOnUse" color-interpolation-filters="sRGB">
<feFlood flood-opacity="0" result="BackgroundImageFix"/>
<feColorMatrix in="SourceAlpha" type="matrix" values="0 0 0 0 0 0 0 0 0 0 0 0 0 0 0 0 0 0 127 0" result="hardAlpha"/>
<feOffset dy="4"/>
<feComposite in2="hardAlpha" operator="out"/>
<feColorMatrix type="matrix" values="0 0 0 0 0.264799 0 0 0 0 0.649061 0 0 0 0 0.846529 0 0 0 1 0"/>
<feBlend mode="normal" in2="BackgroundImageFix" result="effect1_dropShadow_1_92"/>
<feBlend mode="normal" in="SourceGraphic" in2="effect1_dropShadow_1_92" result="shape"/>
</filter>
</defs>
</svg>
