<svg width="382" height="108" viewBox="0 0 382 108" fill="none" xmlns="http://www.w3.org/2000/svg">
<path d="M16.1122 100.316L16.1127 100.316C30.1098 99.9009 43.9955 98.8622 58.1265 95.8269C60.9467 95.2264 63.3196 93.9537 64.9933 92.0264C66.6787 90.0857 67.5159 87.6391 67.5159 84.9668C67.5159 82.0256 66.4869 79.1173 64.4481 77.0958C62.3383 75.0038 59.3164 74.0421 55.8702 74.8374L55.8686 74.8378C45.7617 77.1773 36.1778 78.4838 26.9552 78.9964V27.7614H53.7142C59.2412 27.7614 63.6973 23.3053 63.6973 17.7783C63.6973 12.2925 59.282 7.6921 53.7142 7.6921H15.7336C11.8554 7.6921 8.49845 8.76949 6.1151 11.1528C3.73176 13.5362 2.65436 16.8931 2.65436 20.7714V87.6502C2.65436 91.6446 3.7933 94.9998 6.31021 97.2925C8.79951 99.5602 12.2455 100.429 16.1122 100.316ZM112.27 85.0975L112.242 85.1061L112.214 85.1153C108.176 86.4615 105.346 90.2364 105.346 94.6684C105.346 101.221 111.615 106.118 117.896 104.366C125.196 102.511 130.48 98.6328 134.062 93.8853C137.376 98.0561 142.08 101.64 147.898 103.968C153.104 106.05 157.626 106.04 162.896 104.093L162.911 104.087L162.927 104.081C169.164 101.676 174.101 98.0057 177.551 93.6182C180.888 98.4127 185.813 102.496 192.521 104.359L192.534 104.363L192.547 104.367C198.938 106.062 205.441 101.538 205.505 94.871C206.716 99.3302 210.868 102.587 215.648 102.587H295.944C301.722 102.587 306.546 97.9823 306.546 92.1914C306.546 86.2324 301.761 81.5891 295.944 81.5891H215.648C209.936 81.5891 205.184 86.2169 205.149 92.1251C204.224 88.7888 201.608 86.2783 198.557 85.2263L198.542 85.221L198.526 85.2158C191.204 82.8047 188.166 76.4148 188.166 71.0337V69.0728C188.166 66.4408 186.962 64.2904 185.13 62.7945C186.126 62.9731 187.155 63.0585 188.194 63.0585C191.337 63.0585 194.389 62.2767 196.714 60.4995C199.115 58.665 200.551 55.9049 200.551 52.4563V13.9596C200.551 10.5155 199.119 7.73698 196.731 5.87764C194.41 4.07061 191.356 3.25415 188.194 3.25415C185.033 3.25415 181.979 4.07061 179.658 5.87764C177.27 7.73698 175.837 10.5155 175.837 13.9596V52.4563C175.837 55.86 177.237 58.5929 179.581 60.4272C178.756 60.292 177.906 60.225 177.048 60.225C174.255 60.225 171.539 60.9335 169.451 62.3871C167.313 63.8752 165.826 66.1734 165.826 69.0728V71.0337C165.826 77.784 161.11 83.1586 155.361 85.3701C149.636 83.2511 145.025 78.3223 145.025 71.9626V70.1048C145.025 67.2055 143.539 64.9073 141.401 63.4191C139.312 61.9656 136.597 61.2571 133.804 61.2571C131.011 61.2571 128.295 61.9656 126.207 63.4191C124.069 64.9073 122.582 67.2055 122.582 70.1048V71.9626C122.582 74.6613 121.886 77.3496 120.304 79.6309C118.736 81.8916 116.202 83.8946 112.27 85.0975ZM316.251 68.1558L316.264 68.1589C318.925 68.7729 321.299 68.2329 323.196 66.7819C325.003 65.4005 326.193 63.3394 326.951 61.1839C327.68 59.1335 328.457 58.2265 329.074 57.7896C329.673 57.3657 330.413 57.1757 331.55 57.1757C332.795 57.1757 334.212 57.6378 335.988 58.5686C337.311 59.2622 338.654 60.1136 340.162 61.0688C340.703 61.4122 341.266 61.769 341.857 62.1367C346.176 64.8243 351.538 67.8061 358.281 67.8061C365.649 67.8061 374.875 61.5031 378.395 48.8576C379.05 46.5327 379.131 44.2018 378.348 42.1884C377.531 40.0872 375.865 38.5848 373.6 37.9246C369.344 36.6534 364.603 38.6949 362.709 43.4317C361.327 46.8864 359.509 48.5625 357.559 48.5625C356.489 48.5625 355.247 48.1351 353.598 47.2044C352.486 46.5766 351.377 45.8372 350.123 45.0008C349.473 44.5668 348.783 44.1066 348.033 43.6224C343.806 40.8929 338.432 37.9321 331.241 37.9321C327.317 37.9321 323.273 39.1886 319.709 42.1335C316.16 45.0671 313.209 49.5725 311.249 55.8893L311.244 55.9046L311.239 55.92C310.504 58.4098 310.231 61.014 310.924 63.2721C311.672 65.7086 313.483 67.5002 316.251 68.1558ZM67.5722 94.2555C67.5722 101.166 73.2203 105.58 79.7226 105.58C86.225 105.58 91.873 101.166 91.873 94.2555V61.7168H96.5456C99.5929 61.7168 102.043 60.4256 103.665 58.2857C105.231 56.2212 105.909 53.535 105.909 50.8049C105.909 48.158 105.221 45.5222 103.654 43.4896C102.033 41.3875 99.59 40.0994 96.5456 40.0994H91.873V14.4757C91.873 7.65132 86.2059 3.25415 79.7226 3.25415C73.2394 3.25415 67.5722 7.65132 67.5722 14.4757V94.2555ZM105.346 34.3948C105.346 42.5563 108.957 48.8523 114.758 53.0308C120.479 57.1511 128.202 59.1366 136.487 59.1366C144.723 59.1366 152.421 57.1499 158.128 53.0291C163.914 48.8508 167.525 42.5558 167.525 34.3948V29.2344C167.525 21.0297 163.921 14.6848 158.137 10.465C152.43 6.30168 144.729 4.28623 136.487 4.28623C128.196 4.28623 120.47 6.30039 114.749 10.4633C108.95 14.6833 105.346 21.0292 105.346 29.2344V34.3948ZM143.637 36.0462C143.637 37.718 142.936 39.0137 141.755 39.9461C140.529 40.9143 138.696 41.5444 136.487 41.5444C134.158 41.5444 132.34 40.9062 131.155 39.9569C130.019 39.0462 129.338 37.7578 129.338 36.0462V27.6863C129.338 25.8976 130.041 24.5185 131.197 23.5482C132.388 22.548 134.195 21.8785 136.487 21.8785C140.892 21.8785 143.637 24.4249 143.637 27.6863V36.0462ZM237.425 65.5355H274.063C290.809 65.5355 302.418 52.0213 302.418 35.6333C302.418 19.1481 290.814 5.62794 274.063 5.62794H237.425C220.771 5.62794 209.174 19.1546 209.174 35.6333C209.174 52.0149 220.777 65.5355 237.425 65.5355ZM268.903 45.3631H242.791C237.644 45.3631 233.887 41.5249 233.887 35.6333C233.887 29.8313 237.657 25.9036 242.791 25.9036H268.903C274.038 25.9036 277.807 29.8313 277.807 35.6333C277.807 41.5249 274.05 45.3631 268.903 45.3631Z" fill="white" stroke="#00A2FF" stroke-width="4.69128"/>
</svg>
