<svg width="441" height="40" viewBox="0 0 441 40" fill="none" xmlns="http://www.w3.org/2000/svg">
<g filter="url(#filter0_d_1_125)">
<path d="M130.399 4.3243C130.343 3.7617 130.104 3.32464 129.681 3.01311C129.257 2.70159 128.683 2.54582 127.958 2.54582C127.465 2.54582 127.049 2.61557 126.709 2.75506C126.37 2.8899 126.11 3.07821 125.928 3.31999C125.752 3.56177 125.663 3.83609 125.663 4.14297C125.654 4.3987 125.707 4.62188 125.824 4.81251C125.945 5.00315 126.11 5.16821 126.319 5.3077C126.528 5.44254 126.77 5.5611 127.044 5.66339C127.319 5.76104 127.611 5.84473 127.923 5.91447L129.206 6.22135C129.829 6.36084 130.401 6.54682 130.922 6.7793C131.443 7.01179 131.894 7.29774 132.275 7.63716C132.656 7.97658 132.952 8.37645 133.161 8.83676C133.375 9.29707 133.484 9.82481 133.489 10.42C133.484 11.2941 133.261 12.052 132.819 12.6936C132.382 13.3306 131.75 13.8258 130.922 14.1792C130.099 14.5279 129.106 14.7023 127.944 14.7023C126.791 14.7023 125.786 14.5256 124.931 14.1722C124.08 13.8188 123.415 13.2957 122.936 12.603C122.462 11.9055 122.213 11.043 122.19 10.0154H125.112C125.145 10.4944 125.282 10.8942 125.524 11.215C125.77 11.5312 126.098 11.7707 126.507 11.9334C126.921 12.0915 127.388 12.1705 127.909 12.1705C128.421 12.1705 128.865 12.0961 129.241 11.9474C129.622 11.7986 129.918 11.5917 130.127 11.3266C130.336 11.0616 130.441 10.7571 130.441 10.413C130.441 10.0922 130.345 9.82248 130.155 9.60395C129.969 9.38542 129.694 9.19943 129.332 9.04599C128.974 8.89256 128.534 8.75307 128.014 8.62753L126.458 8.23696C125.254 7.94403 124.303 7.48605 123.606 6.863C122.908 6.23995 122.562 5.40069 122.567 4.34523C122.562 3.4804 122.792 2.72483 123.257 2.07854C123.727 1.43224 124.371 0.927756 125.189 0.565085C126.007 0.202415 126.937 0.0210795 127.979 0.0210795C129.039 0.0210795 129.964 0.202415 130.755 0.565085C131.55 0.927756 132.168 1.43224 132.61 2.07854C133.052 2.72483 133.279 3.47342 133.293 4.3243H130.399ZM144.343 0.216364H147.362V9.49236C147.362 10.5339 147.114 11.4452 146.616 12.2263C146.123 13.0075 145.433 13.6166 144.545 14.0536C143.657 14.4861 142.622 14.7023 141.441 14.7023C140.256 14.7023 139.219 14.4861 138.331 14.0536C137.443 13.6166 136.752 13.0075 136.259 12.2263C135.766 11.4452 135.52 10.5339 135.52 9.49236V0.216364H138.54V9.2343C138.54 9.77831 138.658 10.2619 138.896 10.685C139.137 11.1081 139.477 11.4405 139.914 11.6823C140.351 11.9241 140.86 12.045 141.441 12.045C142.027 12.045 142.536 11.9241 142.969 11.6823C143.406 11.4405 143.743 11.1081 143.98 10.685C144.222 10.2619 144.343 9.77831 144.343 9.2343V0.216364ZM161.794 0.216364V14.5H159.186L152.972 5.50996H152.867V14.5H149.847V0.216364H152.497L158.663 9.19943H158.788V0.216364H161.794ZM164.289 14.5V0.216364H169.925C171.003 0.216364 171.924 0.409323 172.687 0.795242C173.454 1.17651 174.037 1.71819 174.437 2.42028C174.842 3.11773 175.044 3.93839 175.044 4.88226C175.044 5.83078 174.839 6.64679 174.43 7.33028C174.021 8.00913 173.428 8.52989 172.652 8.89256C171.88 9.25523 170.945 9.43656 169.848 9.43656H166.075V7.00946H169.36C169.936 7.00946 170.415 6.93042 170.797 6.77233C171.178 6.61424 171.461 6.37711 171.647 6.06094C171.838 5.74476 171.933 5.35187 171.933 4.88226C171.933 4.408 171.838 4.00813 171.647 3.68266C171.461 3.35718 171.176 3.11075 170.79 2.94337C170.408 2.77133 169.927 2.68531 169.346 2.68531H167.309V14.5H164.289ZM172.003 7.99983L175.553 14.5H172.219L168.746 7.99983H172.003ZM180.198 0.216364V14.5H177.178V0.216364H180.198ZM194.63 0.216364V14.5H192.022L185.807 5.50996H185.703V14.5H182.683V0.216364H185.333L191.498 9.19943H191.624V0.216364H194.63ZM204.691 0.216364V14.5H201.671V0.216364H204.691ZM219.122 0.216364V14.5H216.514L210.3 5.50996H210.195V14.5H207.175V0.216364H209.825L215.991 9.19943H216.116V0.216364H219.122ZM221.074 2.70624V0.216364H232.805V2.70624H228.432V14.5H225.446V2.70624H221.074ZM234.736 14.5V0.216364H244.361V2.70624H237.756V6.10976H243.866V8.59963H237.756V12.0101H244.389V14.5H234.736ZM246.762 14.5V0.216364H252.397C253.476 0.216364 254.397 0.409323 255.159 0.795242C255.926 1.17651 256.51 1.71819 256.91 2.42028C257.314 3.11773 257.517 3.93839 257.517 4.88226C257.517 5.83078 257.312 6.64679 256.903 7.33028C256.494 8.00913 255.901 8.52989 255.124 8.89256C254.353 9.25523 253.418 9.43656 252.321 9.43656H248.548V7.00946H251.832C252.409 7.00946 252.888 6.93042 253.269 6.77233C253.65 6.61424 253.934 6.37711 254.12 6.06094C254.311 5.74476 254.406 5.35187 254.406 4.88226C254.406 4.408 254.311 4.00813 254.12 3.68266C253.934 3.35718 253.648 3.11075 253.262 2.94337C252.881 2.77133 252.4 2.68531 251.819 2.68531H249.782V14.5H246.762ZM254.476 7.99983L258.026 14.5H254.692L251.219 7.99983H254.476ZM271.598 0.216364V14.5H268.99L262.775 5.50996H262.671V14.5H259.651V0.216364H262.301L268.466 9.19943H268.592V0.216364H271.598ZM274.093 14.5V0.216364H283.718V2.70624H277.113V6.10976H283.223V8.59963H277.113V12.0101H283.746V14.5H274.093ZM285.575 2.70624V0.216364H297.306V2.70624H292.933V14.5H289.948V2.70624H285.575ZM303.783 14.5V0.216364H306.803V6.10976H312.934V0.216364H315.947V14.5H312.934V8.59963H306.803V14.5H303.783ZM321.457 0.216364V14.5H318.437V0.216364H321.457ZM333.412 4.83344C333.315 4.49402 333.178 4.19411 333.001 3.93374C332.824 3.66871 332.608 3.44553 332.352 3.26419C332.101 3.07821 331.813 2.93639 331.487 2.83875C331.167 2.74111 330.811 2.69229 330.42 2.69229C329.69 2.69229 329.049 2.87362 328.495 3.23629C327.947 3.59896 327.519 4.12669 327.212 4.81949C326.905 5.50763 326.752 6.34921 326.752 7.34423C326.752 8.33925 326.903 9.18548 327.205 9.88293C327.507 10.5804 327.935 11.1128 328.488 11.4801C329.042 11.8427 329.695 12.0241 330.448 12.0241C331.132 12.0241 331.715 11.9032 332.199 11.6614C332.687 11.415 333.059 11.0686 333.315 10.6222C333.575 10.1759 333.705 9.64812 333.705 9.03902L334.319 9.12969H330.637V6.85602H336.614V8.65543C336.614 9.91082 336.349 10.9895 335.819 11.8916C335.289 12.7889 334.559 13.4817 333.629 13.9699C332.699 14.4535 331.634 14.6953 330.434 14.6953C329.095 14.6953 327.919 14.4 326.905 13.8095C325.892 13.2144 325.101 12.3705 324.534 11.2778C323.971 10.1805 323.69 8.87861 323.69 7.37213C323.69 6.21438 323.857 5.18216 324.192 4.27548C324.532 3.36416 325.006 2.59232 325.615 1.95997C326.224 1.32762 326.933 0.846387 327.742 0.516264C328.551 0.186141 329.428 0.0210795 330.372 0.0210795C331.181 0.0210795 331.934 0.139645 332.631 0.376776C333.329 0.609257 333.947 0.93938 334.486 1.36714C335.031 1.79491 335.475 2.30404 335.819 2.89455C336.163 3.4804 336.384 4.12669 336.481 4.83344H333.412ZM338.882 14.5V0.216364H341.902V6.10976H348.033V0.216364H351.046V14.5H348.033V8.59963H341.902V14.5H338.882ZM365.83 4.3243C365.774 3.7617 365.534 3.32464 365.111 3.01311C364.688 2.70159 364.114 2.54582 363.389 2.54582C362.896 2.54582 362.48 2.61557 362.14 2.75506C361.801 2.8899 361.54 3.07821 361.359 3.31999C361.182 3.56177 361.094 3.83609 361.094 4.14297C361.085 4.3987 361.138 4.62188 361.254 4.81251C361.375 5.00315 361.54 5.16821 361.75 5.3077C361.959 5.44254 362.201 5.5611 362.475 5.66339C362.749 5.76104 363.042 5.84473 363.354 5.91447L364.637 6.22135C365.26 6.36084 365.832 6.54682 366.353 6.7793C366.873 7.01179 367.324 7.29774 367.706 7.63716C368.087 7.97658 368.382 8.37645 368.591 8.83676C368.805 9.29707 368.915 9.82481 368.919 10.42C368.915 11.2941 368.691 12.052 368.25 12.6936C367.813 13.3306 367.18 13.8258 366.353 14.1792C365.53 14.5279 364.537 14.7023 363.375 14.7023C362.221 14.7023 361.217 14.5256 360.362 14.1722C359.511 13.8188 358.846 13.2957 358.367 12.603C357.893 11.9055 357.644 11.043 357.621 10.0154H360.543C360.576 10.4944 360.713 10.8942 360.954 11.215C361.201 11.5312 361.529 11.7707 361.938 11.9334C362.352 12.0915 362.819 12.1705 363.34 12.1705C363.851 12.1705 364.295 12.0961 364.672 11.9474C365.053 11.7986 365.348 11.5917 365.558 11.3266C365.767 11.0616 365.871 10.7571 365.871 10.413C365.871 10.0922 365.776 9.82248 365.585 9.60395C365.399 9.38542 365.125 9.19943 364.762 9.04599C364.404 8.89256 363.965 8.75307 363.444 8.62753L361.889 8.23696C360.685 7.94403 359.734 7.48605 359.036 6.863C358.339 6.23995 357.993 5.40069 357.997 4.34523C357.993 3.4804 358.223 2.72483 358.688 2.07854C359.157 1.43224 359.801 0.927756 360.62 0.565085C361.438 0.202415 362.368 0.0210795 363.409 0.0210795C364.47 0.0210795 365.395 0.202415 366.185 0.565085C366.98 0.927756 367.599 1.43224 368.04 2.07854C368.482 2.72483 368.71 3.47342 368.724 4.3243H365.83ZM383.553 5.21703H380.499C380.443 4.82181 380.329 4.47077 380.157 4.16389C379.985 3.85237 379.764 3.58734 379.494 3.36881C379.225 3.15027 378.913 2.98289 378.56 2.86665C378.211 2.75041 377.832 2.69229 377.423 2.69229C376.684 2.69229 376.04 2.87595 375.491 3.24327C374.942 3.60594 374.517 4.13599 374.215 4.83344C373.912 5.52623 373.761 6.36781 373.761 7.35818C373.761 8.37645 373.912 9.23198 374.215 9.92477C374.521 10.6176 374.949 11.1406 375.498 11.494C376.047 11.8474 376.681 12.0241 377.402 12.0241C377.806 12.0241 378.181 11.9706 378.525 11.8637C378.874 11.7567 379.183 11.601 379.452 11.3964C379.722 11.1871 379.945 10.9337 380.122 10.6362C380.303 10.3386 380.429 9.99917 380.499 9.6179L383.553 9.63185C383.474 10.2874 383.277 10.9198 382.961 11.5289C382.649 12.1333 382.228 12.675 381.698 13.1539C381.173 13.6282 380.545 14.0048 379.815 14.2838C379.09 14.5581 378.269 14.6953 377.353 14.6953C376.079 14.6953 374.94 14.407 373.936 13.8305C372.936 13.2539 372.146 12.4193 371.564 11.3266C370.988 10.234 370.699 8.91116 370.699 7.35818C370.699 5.80056 370.992 4.47542 371.578 3.38276C372.164 2.29009 372.959 1.45781 373.964 0.88591C374.968 0.309356 376.098 0.0210795 377.353 0.0210795C378.181 0.0210795 378.948 0.13732 379.655 0.369801C380.366 0.602282 380.996 0.941704 381.545 1.38807C382.093 1.82978 382.54 2.37146 382.884 3.01311C383.233 3.65476 383.456 4.3894 383.553 5.21703ZM385.719 14.5V0.216364H388.739V6.10976H394.869V0.216364H397.882V14.5H394.869V8.59963H388.739V14.5H385.719ZM413.498 7.35818C413.498 8.91581 413.203 10.2409 412.612 11.3336C412.026 12.4263 411.227 13.2609 410.213 13.8374C409.204 14.4093 408.07 14.6953 406.81 14.6953C405.54 14.6953 404.401 14.407 403.392 13.8305C402.383 13.2539 401.586 12.4193 401 11.3266C400.414 10.234 400.121 8.91116 400.121 7.35818C400.121 5.80056 400.414 4.47542 401 3.38276C401.586 2.29009 402.383 1.45781 403.392 0.88591C404.401 0.309356 405.54 0.0210795 406.81 0.0210795C408.07 0.0210795 409.204 0.309356 410.213 0.88591C411.227 1.45781 412.026 2.29009 412.612 3.38276C413.203 4.47542 413.498 5.80056 413.498 7.35818ZM410.436 7.35818C410.436 6.34921 410.285 5.49833 409.983 4.80554C409.685 4.11275 409.265 3.58734 408.721 3.22932C408.177 2.8713 407.54 2.69229 406.81 2.69229C406.08 2.69229 405.443 2.8713 404.899 3.22932C404.355 3.58734 403.931 4.11275 403.629 4.80554C403.332 5.49833 403.183 6.34921 403.183 7.35818C403.183 8.36715 403.332 9.21803 403.629 9.91082C403.931 10.6036 404.355 11.129 404.899 11.487C405.443 11.8451 406.08 12.0241 406.81 12.0241C407.54 12.0241 408.177 11.8451 408.721 11.487C409.265 11.129 409.685 10.6036 409.983 9.91082C410.285 9.21803 410.436 8.36715 410.436 7.35818ZM428.861 7.35818C428.861 8.91581 428.566 10.2409 427.975 11.3336C427.389 12.4263 426.59 13.2609 425.576 13.8374C424.567 14.4093 423.433 14.6953 422.173 14.6953C420.903 14.6953 419.764 14.407 418.755 13.8305C417.746 13.2539 416.949 12.4193 416.363 11.3266C415.777 10.234 415.484 8.91116 415.484 7.35818C415.484 5.80056 415.777 4.47542 416.363 3.38276C416.949 2.29009 417.746 1.45781 418.755 0.88591C419.764 0.309356 420.903 0.0210795 422.173 0.0210795C423.433 0.0210795 424.567 0.309356 425.576 0.88591C426.59 1.45781 427.389 2.29009 427.975 3.38276C428.566 4.47542 428.861 5.80056 428.861 7.35818ZM425.799 7.35818C425.799 6.34921 425.648 5.49833 425.346 4.80554C425.048 4.11275 424.628 3.58734 424.084 3.22932C423.54 2.8713 422.903 2.69229 422.173 2.69229C421.443 2.69229 420.806 2.8713 420.262 3.22932C419.718 3.58734 419.294 4.11275 418.992 4.80554C418.695 5.49833 418.546 6.34921 418.546 7.35818C418.546 8.36715 418.695 9.21803 418.992 9.91082C419.294 10.6036 419.718 11.129 420.262 11.487C420.806 11.8451 421.443 12.0241 422.173 12.0241C422.903 12.0241 423.54 11.8451 424.084 11.487C424.628 11.129 425.048 10.6036 425.346 9.91082C425.648 9.21803 425.799 8.36715 425.799 7.35818ZM431.098 14.5V0.216364H434.118V12.0101H440.242V14.5H431.098ZM0.744226 38.5V24.2164H6.37957C7.46293 24.2164 8.38588 24.4233 9.14842 24.8371C9.91095 25.2463 10.4922 25.8158 10.892 26.5458C11.2965 27.2712 11.4988 28.1081 11.4988 29.0566C11.4988 30.0051 11.2942 30.8421 10.8851 31.5674C10.4759 32.2928 9.88306 32.8577 9.10657 33.2622C8.33473 33.6667 7.40016 33.869 6.30285 33.869H2.71102V31.4488H5.81464C6.39584 31.4488 6.87475 31.3489 7.25137 31.1489C7.63264 30.9444 7.91627 30.6631 8.10225 30.305C8.29289 29.9424 8.3882 29.5262 8.3882 29.0566C8.3882 28.5824 8.29289 28.1685 8.10225 27.8152C7.91627 27.4571 7.63264 27.1805 7.25137 26.9852C6.8701 26.7853 6.38654 26.6853 5.80069 26.6853H3.76415V38.5H0.744226ZM13.4604 38.5V24.2164H19.0957C20.1744 24.2164 21.095 24.4093 21.8576 24.7952C22.6248 25.1765 23.2083 25.7182 23.6082 26.4203C24.0127 27.1177 24.2149 27.9384 24.2149 28.8823C24.2149 29.8308 24.0103 30.6468 23.6012 31.3303C23.192 32.0091 22.5992 32.5299 21.8227 32.8926C21.0509 33.2552 20.1163 33.4366 19.019 33.4366H15.2458V31.0095H18.5308C19.1073 31.0095 19.5862 30.9304 19.9675 30.7723C20.3488 30.6142 20.6324 30.3771 20.8184 30.0609C21.009 29.7448 21.1043 29.3519 21.1043 28.8823C21.1043 28.408 21.009 28.0081 20.8184 27.6827C20.6324 27.3572 20.3464 27.1108 19.9605 26.9434C19.5793 26.7713 19.098 26.6853 18.5168 26.6853H16.4803V38.5H13.4604ZM21.1741 31.9998L24.7241 38.5H21.3903L17.917 31.9998H21.1741ZM39.475 31.3582C39.475 32.9158 39.1797 34.2409 38.5892 35.3336C38.0034 36.4263 37.2036 37.2609 36.19 37.8374C35.1811 38.4093 34.0466 38.6953 32.7865 38.6953C31.5172 38.6953 30.378 38.407 29.369 37.8305C28.3601 37.2539 27.5627 36.4193 26.9768 35.3266C26.391 34.234 26.098 32.9112 26.098 31.3582C26.098 29.8006 26.391 28.4754 26.9768 27.3828C27.5627 26.2901 28.3601 25.4578 29.369 24.8859C30.378 24.3094 31.5172 24.0211 32.7865 24.0211C34.0466 24.0211 35.1811 24.3094 36.19 24.8859C37.2036 25.4578 38.0034 26.2901 38.5892 27.3828C39.1797 28.4754 39.475 29.8006 39.475 31.3582ZM36.4132 31.3582C36.4132 30.3492 36.2621 29.4983 35.9599 28.8055C35.6623 28.1127 35.2415 27.5873 34.6975 27.2293C34.1535 26.8713 33.5165 26.6923 32.7865 26.6923C32.0565 26.6923 31.4195 26.8713 30.8755 27.2293C30.3315 27.5873 29.9084 28.1127 29.6062 28.8055C29.3086 29.4983 29.1598 30.3492 29.1598 31.3582C29.1598 32.3671 29.3086 33.218 29.6062 33.9108C29.9084 34.6036 30.3315 35.129 30.8755 35.487C31.4195 35.8451 32.0565 36.0241 32.7865 36.0241C33.5165 36.0241 34.1535 35.8451 34.6975 35.487C35.2415 35.129 35.6623 34.6036 35.9599 33.9108C36.2621 33.218 36.4132 32.3671 36.4132 31.3582ZM47.4311 24.2164H50.4161V34.1759C50.4161 35.0965 50.2092 35.8962 49.7954 36.5751C49.3862 37.2539 48.8167 37.777 48.0867 38.1443C47.3567 38.5116 46.5081 38.6953 45.541 38.6953C44.6808 38.6953 43.8997 38.5442 43.1976 38.2419C42.5001 37.9351 41.9468 37.4701 41.5377 36.8471C41.1285 36.2194 40.9263 35.4312 40.9309 34.4827H43.9369C43.9462 34.8593 44.0229 35.1825 44.167 35.4522C44.3158 35.7172 44.5181 35.9218 44.7738 36.0659C45.0342 36.2054 45.3411 36.2752 45.6944 36.2752C46.0664 36.2752 46.3803 36.1961 46.636 36.038C46.8964 35.8753 47.094 35.6382 47.2288 35.3266C47.3637 35.0151 47.4311 34.6315 47.4311 34.1759V24.2164ZM52.913 38.5V24.2164H62.5377V26.7062H55.9329V30.1098H62.0425V32.5996H55.9329V36.0101H62.5656V38.5H52.913ZM77.5414 29.217H74.4866C74.4308 28.8218 74.3169 28.4708 74.1449 28.1639C73.9729 27.8524 73.752 27.5873 73.4823 27.3688C73.2126 27.1503 72.9011 26.9829 72.5477 26.8666C72.199 26.7504 71.8201 26.6923 71.4109 26.6923C70.6716 26.6923 70.0276 26.8759 69.479 27.2433C68.9303 27.6059 68.5049 28.136 68.2027 28.8334C67.9004 29.5262 67.7493 30.3678 67.7493 31.3582C67.7493 32.3764 67.9004 33.232 68.2027 33.9248C68.5095 34.6176 68.9373 35.1406 69.486 35.494C70.0346 35.8474 70.6693 36.0241 71.39 36.0241C71.7945 36.0241 72.1688 35.9706 72.5129 35.8637C72.8616 35.7567 73.1708 35.601 73.4405 35.3964C73.7101 35.1871 73.9333 34.9337 74.11 34.6362C74.2914 34.3386 74.4169 33.9992 74.4866 33.6179L77.5414 33.6318C77.4624 34.2874 77.2648 34.9198 76.9486 35.5289C76.6371 36.1333 76.2163 36.675 75.6862 37.1539C75.1608 37.6282 74.5331 38.0048 73.8031 38.2838C73.0778 38.5581 72.2571 38.6953 71.3412 38.6953C70.0672 38.6953 68.928 38.407 67.9237 37.8305C66.924 37.2539 66.1336 36.4193 65.5524 35.3266C64.9758 34.234 64.6876 32.9112 64.6876 31.3582C64.6876 29.8006 64.9805 28.4754 65.5663 27.3828C66.1522 26.2901 66.9473 25.4578 67.9516 24.8859C68.9559 24.3094 70.0858 24.0211 71.3412 24.0211C72.1688 24.0211 72.936 24.1373 73.6427 24.3698C74.3541 24.6023 74.9841 24.9417 75.5328 25.3881C76.0815 25.8298 76.5278 26.3715 76.8719 27.0131C77.2206 27.6548 77.4438 28.3894 77.5414 29.217ZM79.163 26.7062V24.2164H90.894V26.7062H86.521V38.5H83.536V26.7062H79.163ZM99.8335 38.5H96.5973L101.528 24.2164H105.42L110.344 38.5H107.108L103.53 27.4804H103.418L99.8335 38.5ZM99.6312 32.8856H107.275V35.2429H99.6312V32.8856ZM123.995 29.217H120.94C120.884 28.8218 120.77 28.4708 120.598 28.1639C120.426 27.8524 120.205 27.5873 119.936 27.3688C119.666 27.1503 119.354 26.9829 119.001 26.8666C118.652 26.7504 118.273 26.6923 117.864 26.6923C117.125 26.6923 116.481 26.8759 115.932 27.2433C115.384 27.6059 114.958 28.136 114.656 28.8334C114.354 29.5262 114.203 30.3678 114.203 31.3582C114.203 32.3764 114.354 33.232 114.656 33.9248C114.963 34.6176 115.391 35.1406 115.939 35.494C116.488 35.8474 117.122 36.0241 117.843 36.0241C118.248 36.0241 118.622 35.9706 118.966 35.8637C119.315 35.7567 119.624 35.601 119.894 35.3964C120.163 35.1871 120.387 34.9337 120.563 34.6362C120.745 34.3386 120.87 33.9992 120.94 33.6179L123.995 33.6318C123.916 34.2874 123.718 34.9198 123.402 35.5289C123.09 36.1333 122.669 36.675 122.139 37.1539C121.614 37.6282 120.986 38.0048 120.256 38.2838C119.531 38.5581 118.71 38.6953 117.794 38.6953C116.52 38.6953 115.381 38.407 114.377 37.8305C113.377 37.2539 112.587 36.4193 112.006 35.3266C111.429 34.234 111.141 32.9112 111.141 31.3582C111.141 29.8006 111.434 28.4754 112.02 27.3828C112.605 26.2901 113.4 25.4578 114.405 24.8859C115.409 24.3094 116.539 24.0211 117.794 24.0211C118.622 24.0211 119.389 24.1373 120.096 24.3698C120.807 24.6023 121.437 24.9417 121.986 25.3881C122.535 25.8298 122.981 26.3715 123.325 27.0131C123.674 27.6548 123.897 28.3894 123.995 29.217ZM126.16 38.5V24.2164H129.18V30.1098H135.311V24.2164H138.324V38.5H135.311V32.5996H129.18V38.5H126.16ZM143.833 24.2164V38.5H140.813V24.2164H143.833ZM148.899 24.2164L152.351 35.0686H152.483L155.943 24.2164H159.29L154.367 38.5H150.475L145.544 24.2164H148.899ZM161.01 38.5V24.2164H170.634V26.7062H164.03V30.1098H170.139V32.5996H164.03V36.0101H170.662V38.5H161.01ZM173.035 24.2164H176.76L180.693 33.8132H180.861L184.794 24.2164H188.519V38.5H185.589V29.2031H185.471L181.774 38.4303H179.78L176.083 29.1682H175.965V38.5H173.035V24.2164ZM191.007 38.5V24.2164H200.631V26.7062H194.027V30.1098H200.136V32.5996H194.027V36.0101H200.659V38.5H191.007ZM214.98 24.2164V38.5H212.371L206.157 29.51H206.052V38.5H203.032V24.2164H205.683L211.848 33.1994H211.974V24.2164H214.98ZM216.931 26.7062V24.2164H228.662V26.7062H224.289V38.5H221.304V26.7062H216.931ZM239.463 38.7092C238.478 38.7092 237.627 38.5325 236.911 38.1792C236.195 37.8258 235.644 37.3469 235.258 36.7424C234.876 36.1333 234.686 35.4545 234.686 34.7059C234.686 34.148 234.797 33.6528 235.021 33.2204C235.244 32.7879 235.555 32.3904 235.955 32.0277C236.355 31.6604 236.82 31.2954 237.35 30.9327L240.119 29.1124C240.477 28.8846 240.74 28.6451 240.907 28.394C241.074 28.1383 241.158 27.8617 241.158 27.5641C241.158 27.2805 241.044 27.0178 240.816 26.776C240.589 26.5342 240.265 26.4156 239.847 26.4203C239.568 26.4203 239.326 26.4831 239.122 26.6086C238.917 26.7295 238.757 26.8899 238.64 27.0898C238.529 27.2851 238.473 27.5036 238.473 27.7454C238.473 28.043 238.557 28.3452 238.724 28.6521C238.891 28.959 239.115 29.2845 239.394 29.6285C239.673 29.9679 239.977 30.3353 240.307 30.7305L247.079 38.5H243.983L238.333 32.2091C237.962 31.7859 237.59 31.3442 237.218 30.8839C236.85 30.419 236.543 29.9261 236.297 29.4053C236.051 28.8799 235.927 28.3104 235.927 27.6966C235.927 27.0038 236.088 26.3808 236.409 25.8275C236.734 25.2742 237.19 24.8371 237.776 24.5163C238.361 24.1908 239.045 24.0281 239.826 24.0281C240.589 24.0281 241.246 24.1838 241.8 24.4953C242.358 24.8022 242.785 25.2114 243.083 25.7228C243.385 26.2296 243.536 26.7876 243.536 27.3967C243.536 28.0709 243.369 28.6823 243.034 29.231C242.704 29.775 242.239 30.2632 241.639 30.6956L238.724 32.7949C238.329 33.0832 238.036 33.3784 237.845 33.6807C237.659 33.9782 237.566 34.2642 237.566 34.5385C237.566 34.8779 237.65 35.1825 237.817 35.4522C237.985 35.7219 238.222 35.9357 238.529 36.0938C238.836 36.2473 239.196 36.324 239.61 36.324C240.112 36.324 240.607 36.2101 241.095 35.9822C241.588 35.7497 242.035 35.422 242.434 34.9988C242.839 34.5711 243.162 34.0643 243.404 33.4784C243.646 32.8926 243.767 32.2439 243.767 31.5325H246.229C246.229 32.4067 246.133 33.1948 245.943 33.8969C245.752 34.5943 245.487 35.2034 245.147 35.7242C244.808 36.2403 244.42 36.6634 243.983 36.9935C243.843 37.0819 243.708 37.1656 243.578 37.2446C243.448 37.3236 243.313 37.4073 243.174 37.4957C242.644 37.9234 242.051 38.2326 241.395 38.4233C240.744 38.6139 240.1 38.7092 239.463 38.7092ZM252.919 38.5V24.2164H258.554C259.633 24.2164 260.553 24.4093 261.316 24.7952C262.083 25.1765 262.667 25.7182 263.067 26.4203C263.471 27.1177 263.673 27.9384 263.673 28.8823C263.673 29.8308 263.469 30.6468 263.06 31.3303C262.65 32.0091 262.058 32.5299 261.281 32.8926C260.509 33.2552 259.575 33.4366 258.477 33.4366H254.704V31.0095H257.989C258.566 31.0095 259.045 30.9304 259.426 30.7723C259.807 30.6142 260.091 30.3771 260.277 30.0609C260.467 29.7448 260.563 29.3519 260.563 28.8823C260.563 28.408 260.467 28.0081 260.277 27.6827C260.091 27.3572 259.805 27.1108 259.419 26.9434C259.038 26.7713 258.556 26.6853 257.975 26.6853H255.939V38.5H252.919ZM260.632 31.9998L264.182 38.5H260.849L257.375 31.9998H260.632ZM265.807 38.5V24.2164H275.432V26.7062H268.827V30.1098H274.937V32.5996H268.827V36.0101H275.46V38.5H265.807ZM285.582 28.3243C285.526 27.7617 285.286 27.3246 284.863 27.0131C284.44 26.7016 283.866 26.5458 283.141 26.5458C282.648 26.5458 282.232 26.6156 281.892 26.7551C281.553 26.8899 281.292 27.0782 281.111 27.32C280.934 27.5618 280.846 27.8361 280.846 28.143C280.837 28.3987 280.89 28.6219 281.007 28.8125C281.127 29.0031 281.292 29.1682 281.502 29.3077C281.711 29.4425 281.953 29.5611 282.227 29.6634C282.501 29.761 282.794 29.8447 283.106 29.9145L284.389 30.2213C285.012 30.3608 285.584 30.5468 286.105 30.7793C286.626 31.0118 287.077 31.2977 287.458 31.6372C287.839 31.9766 288.134 32.3764 288.344 32.8368C288.558 33.2971 288.667 33.8248 288.671 34.42C288.667 35.2941 288.444 36.052 288.002 36.6936C287.565 37.3306 286.932 37.8258 286.105 38.1792C285.282 38.5279 284.289 38.7023 283.127 38.7023C281.974 38.7023 280.969 38.5256 280.114 38.1722C279.263 37.8188 278.598 37.2957 278.119 36.603C277.645 35.9055 277.396 35.043 277.373 34.0154H280.295C280.328 34.4944 280.465 34.8942 280.707 35.215C280.953 35.5312 281.281 35.7707 281.69 35.9334C282.104 36.0915 282.571 36.1705 283.092 36.1705C283.603 36.1705 284.047 36.0961 284.424 35.9474C284.805 35.7986 285.101 35.5917 285.31 35.3266C285.519 35.0616 285.624 34.7571 285.624 34.413C285.624 34.0922 285.528 33.8225 285.338 33.6039C285.152 33.3854 284.877 33.1994 284.515 33.046C284.157 32.8926 283.717 32.7531 283.196 32.6275L281.641 32.237C280.437 31.944 279.486 31.486 278.789 30.863C278.091 30.2399 277.745 29.4007 277.749 28.3452C277.745 27.4804 277.975 26.7248 278.44 26.0785C278.91 25.4322 279.554 24.9278 280.372 24.5651C281.19 24.2024 282.12 24.0211 283.162 24.0211C284.222 24.0211 285.147 24.2024 285.937 24.5651C286.733 24.9278 287.351 25.4322 287.793 26.0785C288.234 26.7248 288.462 27.4734 288.476 28.3243H285.582ZM290.703 38.5V24.2164H300.327V26.7062H293.723V30.1098H299.832V32.5996H293.723V36.0101H300.355V38.5H290.703ZM305.19 38.5H301.954L306.885 24.2164H310.777L315.701 38.5H312.465L308.887 27.4804H308.775L305.19 38.5ZM304.988 32.8856H312.632V35.2429H304.988V32.8856ZM317.42 38.5V24.2164H323.055C324.134 24.2164 325.055 24.4093 325.817 24.7952C326.584 25.1765 327.168 25.7182 327.568 26.4203C327.972 27.1177 328.175 27.9384 328.175 28.8823C328.175 29.8308 327.97 30.6468 327.561 31.3303C327.152 32.0091 326.559 32.5299 325.782 32.8926C325.011 33.2552 324.076 33.4366 322.979 33.4366H319.205V31.0095H322.49C323.067 31.0095 323.546 30.9304 323.927 30.7723C324.308 30.6142 324.592 30.3771 324.778 30.0609C324.969 29.7448 325.064 29.3519 325.064 28.8823C325.064 28.408 324.969 28.0081 324.778 27.6827C324.592 27.3572 324.306 27.1108 323.92 26.9434C323.539 26.7713 323.058 26.6853 322.477 26.6853H320.44V38.5H317.42ZM325.134 31.9998L328.684 38.5H325.35L321.877 31.9998H325.134ZM342.912 29.217H339.857C339.801 28.8218 339.687 28.4708 339.515 28.1639C339.343 27.8524 339.122 27.5873 338.852 27.3688C338.583 27.1503 338.271 26.9829 337.918 26.8666C337.569 26.7504 337.19 26.6923 336.781 26.6923C336.042 26.6923 335.398 26.8759 334.849 27.2433C334.301 27.6059 333.875 28.136 333.573 28.8334C333.271 29.5262 333.119 30.3678 333.119 31.3582C333.119 32.3764 333.271 33.232 333.573 33.9248C333.88 34.6176 334.307 35.1406 334.856 35.494C335.405 35.8474 336.039 36.0241 336.76 36.0241C337.165 36.0241 337.539 35.9706 337.883 35.8637C338.232 35.7567 338.541 35.601 338.811 35.3964C339.08 35.1871 339.303 34.9337 339.48 34.6362C339.662 34.3386 339.787 33.9992 339.857 33.6179L342.912 33.6318C342.833 34.2874 342.635 34.9198 342.319 35.5289C342.007 36.1333 341.586 36.675 341.056 37.1539C340.531 37.6282 339.903 38.0048 339.173 38.2838C338.448 38.5581 337.627 38.6953 336.711 38.6953C335.437 38.6953 334.298 38.407 333.294 37.8305C332.294 37.2539 331.504 36.4193 330.923 35.3266C330.346 34.234 330.058 32.9112 330.058 31.3582C330.058 29.8006 330.351 28.4754 330.937 27.3828C331.522 26.2901 332.317 25.4578 333.322 24.8859C334.326 24.3094 335.456 24.0211 336.711 24.0211C337.539 24.0211 338.306 24.1373 339.013 24.3698C339.724 24.6023 340.354 24.9417 340.903 25.3881C341.452 25.8298 341.898 26.3715 342.242 27.0131C342.591 27.6548 342.814 28.3894 342.912 29.217ZM345.077 38.5V24.2164H348.097V30.1098H354.228V24.2164H357.241V38.5H354.228V32.5996H348.097V38.5H345.077ZM366.738 38.5H363.502L368.433 24.2164H372.325L377.248 38.5H374.012L370.434 27.4804H370.323L366.738 38.5ZM366.536 32.8856H374.18V35.2429H366.536V32.8856ZM381.988 24.2164V38.5H378.968V24.2164H381.988ZM401.621 29.217H398.566C398.51 28.8218 398.396 28.4708 398.224 28.1639C398.052 27.8524 397.831 27.5873 397.561 27.3688C397.292 27.1503 396.98 26.9829 396.627 26.8666C396.278 26.7504 395.899 26.6923 395.49 26.6923C394.751 26.6923 394.107 26.8759 393.558 27.2433C393.01 27.6059 392.584 28.136 392.282 28.8334C391.98 29.5262 391.829 30.3678 391.829 31.3582C391.829 32.3764 391.98 33.232 392.282 33.9248C392.589 34.6176 393.016 35.1406 393.565 35.494C394.114 35.8474 394.748 36.0241 395.469 36.0241C395.874 36.0241 396.248 35.9706 396.592 35.8637C396.941 35.7567 397.25 35.601 397.52 35.3964C397.789 35.1871 398.013 34.9337 398.189 34.6362C398.371 34.3386 398.496 33.9992 398.566 33.6179L401.621 33.6318C401.542 34.2874 401.344 34.9198 401.028 35.5289C400.716 36.1333 400.295 36.675 399.765 37.1539C399.24 37.6282 398.612 38.0048 397.882 38.2838C397.157 38.5581 396.336 38.6953 395.42 38.6953C394.146 38.6953 393.007 38.407 392.003 37.8305C391.003 37.2539 390.213 36.4193 389.632 35.3266C389.055 34.234 388.767 32.9112 388.767 31.3582C388.767 29.8006 389.06 28.4754 389.646 27.3828C390.231 26.2901 391.026 25.4578 392.031 24.8859C393.035 24.3094 394.165 24.0211 395.42 24.0211C396.248 24.0211 397.015 24.1373 397.722 24.3698C398.433 24.6023 399.063 24.9417 399.612 25.3881C400.161 25.8298 400.607 26.3715 400.951 27.0131C401.3 27.6548 401.523 28.3894 401.621 29.217ZM403.786 38.5V24.2164H406.806V36.0101H412.93V38.5H403.786ZM423.752 24.2164H426.772V33.4924C426.772 34.5339 426.523 35.4452 426.026 36.2263C425.533 37.0075 424.843 37.6166 423.954 38.0536C423.066 38.4861 422.032 38.7023 420.851 38.7023C419.665 38.7023 418.628 38.4861 417.74 38.0536C416.852 37.6166 416.162 37.0075 415.669 36.2263C415.176 35.4452 414.93 34.5339 414.93 33.4924V24.2164H417.949V33.2343C417.949 33.7783 418.068 34.2619 418.305 34.685C418.547 35.1081 418.886 35.4405 419.323 35.6823C419.761 35.9241 420.27 36.045 420.851 36.045C421.437 36.045 421.946 35.9241 422.378 35.6823C422.815 35.4405 423.152 35.1081 423.39 34.685C423.631 34.2619 423.752 33.7783 423.752 33.2343V24.2164ZM429.257 38.5V24.2164H434.976C436.027 24.2164 436.903 24.3721 437.605 24.6837C438.307 24.9952 438.835 25.4276 439.188 25.9809C439.542 26.5296 439.718 27.1619 439.718 27.8779C439.718 28.4359 439.607 28.9264 439.384 29.3495C439.16 29.768 438.854 30.1121 438.463 30.3818C438.077 30.6468 437.635 30.8351 437.138 30.9467V31.0862C437.682 31.1094 438.191 31.2629 438.665 31.5465C439.144 31.8301 439.532 32.2277 439.83 32.7391C440.128 33.2459 440.276 33.8504 440.276 34.5525C440.276 35.3104 440.088 35.9869 439.711 36.582C439.34 37.1725 438.789 37.6398 438.059 37.9839C437.329 38.328 436.429 38.5 435.359 38.5H429.257ZM432.277 36.0311H434.739C435.58 36.0311 436.194 35.8706 436.58 35.5498C436.966 35.2243 437.159 34.7919 437.159 34.2526C437.159 33.8574 437.064 33.5086 436.873 33.2064C436.682 32.9042 436.41 32.6671 436.057 32.495C435.708 32.323 435.292 32.237 434.808 32.237H432.277V36.0311ZM432.277 30.1935H434.516C434.929 30.1935 435.297 30.1214 435.617 29.9772C435.943 29.8285 436.199 29.6192 436.385 29.3495C436.575 29.0799 436.671 28.7567 436.671 28.3801C436.671 27.864 436.487 27.4479 436.12 27.1317C435.757 26.8155 435.241 26.6574 434.571 26.6574H432.277V30.1935Z" fill="white"/>
</g>
<defs>
<filter id="filter0_d_1_125" x="0.744141" y="0.0210876" width="439.532" height="39.6881" filterUnits="userSpaceOnUse" color-interpolation-filters="sRGB">
<feFlood flood-opacity="0" result="BackgroundImageFix"/>
<feColorMatrix in="SourceAlpha" type="matrix" values="0 0 0 0 0 0 0 0 0 0 0 0 0 0 0 0 0 0 127 0" result="hardAlpha"/>
<feOffset dy="1"/>
<feComposite in2="hardAlpha" operator="out"/>
<feColorMatrix type="matrix" values="0 0 0 0 0.0482072 0 0 0 0 0.467405 0 0 0 0 0.766832 0 0 0 0.69 0"/>
<feBlend mode="normal" in2="BackgroundImageFix" result="effect1_dropShadow_1_125"/>
<feBlend mode="normal" in="SourceGraphic" in2="effect1_dropShadow_1_125" result="shape"/>
</filter>
</defs>
</svg>
