<svg width="181" height="33" viewBox="0 0 181 33" fill="none" xmlns="http://www.w3.org/2000/svg">
<g filter="url(#filter0_d_6_273)">
<path d="M28.5441 5.61062C28.6401 6.82662 28.6401 8.71462 28.5441 9.93062C28.0321 9.99462 27.0721 10.0266 25.7921 10.0266C25.7921 12.5226 25.7601 14.8266 25.7281 16.1386C24.7361 16.2666 22.0801 16.2346 20.9601 16.1386C20.8641 13.3866 20.8641 2.82662 20.9601 0.394617C21.8241 0.266619 24.6081 0.234618 25.7281 0.394617C25.7601 1.57862 25.7601 3.46662 25.7921 5.54662C26.9121 5.54662 27.8721 5.57862 28.5441 5.61062ZM17.1521 14.9226C14.8801 15.0506 3.42413 15.0826 0.832125 14.9226C0.768125 12.4586 0.768125 3.37062 0.832125 0.938618C2.08013 0.810618 4.41613 0.842619 5.50413 0.938618V4.20262C7.55213 4.17062 10.4641 4.17062 12.5121 4.20262V0.938618C13.7601 0.842619 15.9041 0.842619 17.1521 0.938618C17.2481 3.81862 17.2481 13.6426 17.1521 14.9226ZM5.50413 8.07462V10.9226C7.04013 10.9866 11.1361 10.9866 12.5121 10.9226V8.07462C10.4641 8.10662 7.52013 8.10662 5.50413 8.07462ZM13.8561 17.1946C23.8081 17.1946 26.2721 19.3066 26.2721 23.4986C26.2721 28.1066 23.3281 29.8026 13.8561 29.8026C3.90413 29.8026 1.44013 27.6906 1.44013 23.4986C1.44013 18.8906 4.38413 17.1946 13.8561 17.1946ZM13.8561 25.8346C20.6081 25.8346 21.4081 25.0666 21.4081 23.4986C21.4081 22.0266 20.5761 21.1626 13.8561 21.1626C7.10413 21.1626 6.30413 21.9306 6.30413 23.4986C6.30413 24.9706 7.13613 25.8346 13.8561 25.8346ZM47.9976 9.57862C48.7976 9.54662 50.0776 9.54662 51.4536 9.54662V6.82662C50.1096 6.82662 48.8296 6.79462 47.9976 6.76262C47.9016 5.54662 47.9016 3.69062 47.9976 2.47462C48.7976 2.44262 50.1096 2.44262 51.4856 2.44262C51.4856 1.54662 51.4856 0.842619 51.5176 0.394617C52.3816 0.266619 55.1656 0.234618 56.2856 0.394617C56.3496 3.85062 56.3816 13.2906 56.2856 16.4586C55.2936 16.5866 52.6376 16.5546 51.5176 16.4586C51.4856 15.9146 51.4856 15.0186 51.4856 13.9306C50.1416 13.9306 48.8296 13.8986 47.9976 13.8666C47.9016 12.6506 47.9016 10.7946 47.9976 9.57862ZM46.5896 14.6026C44.4456 14.7306 33.0856 14.7626 30.5896 14.6026C30.4616 11.1146 30.4616 4.20262 30.5896 0.938618C32.5736 0.810618 44.1576 0.810618 46.5896 0.938618C46.7496 4.42662 46.7496 11.5626 46.5896 14.6026ZM35.1976 4.93862C35.1336 6.09062 35.1336 9.45062 35.1976 10.6026C36.8936 10.6666 40.3496 10.6986 42.0456 10.6026C42.1096 9.48262 42.1096 6.09062 42.0456 4.93862C40.3816 4.87462 37.2136 4.90662 35.1976 4.93862ZM44.4136 17.0666C54.3656 17.0666 56.8296 19.1786 56.8296 23.3706C56.8296 27.9786 53.8856 29.6746 44.4136 29.6746C34.4616 29.6746 31.9976 27.5626 31.9976 23.3706C31.9976 18.7626 34.9416 17.0666 44.4136 17.0666ZM44.4136 25.7066C51.1656 25.7066 51.9656 24.9386 51.9656 23.3706C51.9656 21.8986 51.1336 21.0346 44.4136 21.0346C37.6616 21.0346 36.8616 21.8026 36.8616 23.3706C36.8616 24.8426 37.6936 25.7066 44.4136 25.7066ZM86.6831 15.2106C86.8111 16.3306 86.8111 17.8666 86.6831 19.1146C83.9311 19.3066 62.9391 19.2426 59.1631 19.1146C59.0351 18.0266 59.0351 16.3946 59.1631 15.2106C61.7551 15.1786 66.0111 15.1466 70.4271 15.1466V13.8666C66.4911 13.8666 62.8431 13.8026 61.2431 13.7386C61.1151 11.9786 61.0511 8.42662 61.2431 5.29062H79.4511V4.10662H61.3071C61.1791 3.11462 61.1791 1.16262 61.3071 0.330618C70.6191 0.234618 80.3471 0.202618 84.2831 0.298619C84.4431 1.54662 84.4431 7.46662 84.2831 8.84262H66.0751V10.0266H84.6031C84.7311 11.1786 84.6671 12.6826 84.6031 13.7386C83.6751 13.8026 79.8031 13.8666 75.4191 13.8666V15.1786C80.6351 15.1786 85.2751 15.2106 86.6831 15.2106ZM60.8271 20.5866C63.3871 20.4586 82.0111 20.4266 84.9231 20.5866C85.1151 23.2426 85.0191 27.7226 84.9231 29.2586C83.7711 29.3226 81.1791 29.3226 80.0271 29.2586C79.9631 27.6586 79.9951 26.1866 80.0271 24.5866C72.9551 24.5866 63.2271 24.6826 60.8271 24.5866C60.6991 23.3706 60.6991 21.8026 60.8271 20.5866ZM123.575 5.29062C123.671 6.50662 123.671 8.39462 123.575 9.61062C123.063 9.67462 122.103 9.70662 120.823 9.70662C120.823 11.9146 120.791 13.9306 120.759 15.1786C119.767 15.3066 117.111 15.2746 115.991 15.1786C115.895 12.4266 115.895 2.82662 115.991 0.394617C116.855 0.266619 119.639 0.234618 120.759 0.394617C120.791 1.57862 120.791 3.33862 120.823 5.22662C121.943 5.22662 122.903 5.25862 123.575 5.29062ZM113.143 13.4826C110.583 13.5786 98.7754 13.6106 95.8634 13.4826C95.7034 10.4426 95.7034 3.43462 95.8634 0.938618C96.8554 0.810618 99.4794 0.842619 100.631 0.938618C100.695 3.17862 100.663 7.49862 100.631 9.25862C102.903 9.19462 110.743 9.19462 113.143 9.25862C113.271 10.4746 113.271 12.2666 113.143 13.4826ZM96.9834 16.6186C98.9674 16.4906 119.895 16.5226 120.759 16.6186C120.887 19.1466 120.887 26.8906 120.759 29.2906C118.615 29.4826 99.4794 29.5146 96.9834 29.2906C96.8234 25.8026 96.8874 19.8506 96.9834 16.6186ZM116.055 25.2906C116.119 24.3626 116.119 21.8026 116.055 20.6506C114.263 20.5546 103.799 20.5866 101.687 20.6506C101.623 21.6426 101.591 24.0106 101.687 25.2906C103.159 25.3866 114.711 25.3546 116.055 25.2906ZM146.517 29.1946C146.389 25.4826 146.421 4.10662 146.517 0.394617C147.381 0.202618 150.197 0.234618 151.317 0.394617C151.445 4.77862 151.445 25.3866 151.317 29.1946C150.325 29.3226 147.637 29.2906 146.517 29.1946ZM136.245 27.0506C136.245 24.6826 136.277 8.01062 136.245 5.67462C134.261 5.73862 127.605 5.73862 125.173 5.67462C125.045 4.42662 125.045 2.47462 125.173 1.29062C127.733 1.16262 138.197 1.13062 141.013 1.29062C141.237 5.00262 141.301 23.3386 141.109 27.0506C140.277 27.2106 137.397 27.1786 136.245 27.0506ZM175.954 29.1946C175.826 25.4826 175.858 4.10662 175.954 0.394617C176.818 0.202618 179.634 0.234618 180.754 0.394617C180.882 4.77862 180.882 25.3866 180.754 29.1946C179.762 29.3226 177.074 29.2906 175.954 29.1946ZM165.682 27.0506C165.682 24.6826 165.714 8.01062 165.682 5.67462C163.698 5.73862 157.042 5.73862 154.61 5.67462C154.482 4.42662 154.482 2.47462 154.61 1.29062C157.17 1.16262 167.634 1.13062 170.45 1.29062C170.674 5.00262 170.738 23.3386 170.546 27.0506C169.714 27.2106 166.834 27.1786 165.682 27.0506Z" fill="white"/>
</g>
<defs>
<filter id="filter0_d_6_273" x="0.768066" y="0.202606" width="180.114" height="32.6" filterUnits="userSpaceOnUse" color-interpolation-filters="sRGB">
<feFlood flood-opacity="0" result="BackgroundImageFix"/>
<feColorMatrix in="SourceAlpha" type="matrix" values="0 0 0 0 0 0 0 0 0 0 0 0 0 0 0 0 0 0 127 0" result="hardAlpha"/>
<feOffset dy="3"/>
<feComposite in2="hardAlpha" operator="out"/>
<feColorMatrix type="matrix" values="0 0 0 0 0.264799 0 0 0 0 0.649061 0 0 0 0 0.846529 0 0 0 1 0"/>
<feBlend mode="normal" in2="BackgroundImageFix" result="effect1_dropShadow_6_273"/>
<feBlend mode="normal" in="SourceGraphic" in2="effect1_dropShadow_6_273" result="shape"/>
</filter>
</defs>
</svg>
