<svg width="124" height="45" viewBox="0 0 124 45" fill="none" xmlns="http://www.w3.org/2000/svg">
<g filter="url(#filter0_d_6_271)">
<path d="M40.0488 8.228C40.1868 9.976 40.1868 12.69 40.0488 14.438C39.3128 14.53 37.9328 14.576 36.0928 14.576C36.0928 18.164 36.0468 21.476 36.0008 23.362C34.5748 23.546 30.7568 23.5 29.1468 23.362C29.0088 19.406 29.0088 4.226 29.1468 0.729997C30.3888 0.545999 34.3908 0.499997 36.0008 0.729997C36.0468 2.432 36.0468 5.146 36.0928 8.136C37.7028 8.136 39.0828 8.182 40.0488 8.228ZM23.6728 21.614C20.4068 21.798 3.93878 21.844 0.212781 21.614C0.120781 18.072 0.120781 5.008 0.212781 1.512C2.00678 1.328 5.36478 1.374 6.92878 1.512V6.204C9.87278 6.158 14.0588 6.158 17.0028 6.204V1.512C18.7968 1.374 21.8788 1.374 23.6728 1.512C23.8108 5.652 23.8108 19.774 23.6728 21.614ZM6.92878 11.77V15.864C9.13678 15.956 15.0248 15.956 17.0028 15.864V11.77C14.0588 11.816 9.82678 11.816 6.92878 11.77ZM18.9348 24.88C33.2408 24.88 36.7828 27.916 36.7828 33.942C36.7828 40.566 32.5508 43.004 18.9348 43.004C4.62878 43.004 1.08678 39.968 1.08678 33.942C1.08678 27.318 5.31878 24.88 18.9348 24.88ZM18.9348 37.3C28.6408 37.3 29.7908 36.196 29.7908 33.942C29.7908 31.826 28.5948 30.584 18.9348 30.584C9.22878 30.584 8.07878 31.688 8.07878 33.942C8.07878 36.058 9.27478 37.3 18.9348 37.3ZM68.0132 13.932C69.1632 13.886 71.0032 13.886 72.9812 13.886V9.976C71.0492 9.976 69.2092 9.93 68.0132 9.884C67.8752 8.136 67.8752 5.468 68.0132 3.72C69.1632 3.674 71.0492 3.674 73.0272 3.674C73.0272 2.386 73.0272 1.374 73.0732 0.729997C74.3152 0.545999 78.3172 0.499997 79.9272 0.729997C80.0192 5.698 80.0652 19.268 79.9272 23.822C78.5012 24.006 74.6832 23.96 73.0732 23.822C73.0272 23.04 73.0272 21.752 73.0272 20.188C71.0952 20.188 69.2092 20.142 68.0132 20.096C67.8752 18.348 67.8752 15.68 68.0132 13.932ZM65.9892 21.154C62.9072 21.338 46.5772 21.384 42.9892 21.154C42.8052 16.14 42.8052 6.204 42.9892 1.512C45.8412 1.328 62.4932 1.328 65.9892 1.512C66.2192 6.526 66.2192 16.784 65.9892 21.154ZM49.6132 7.262C49.5212 8.918 49.5212 13.748 49.6132 15.404C52.0512 15.496 57.0192 15.542 59.4572 15.404C59.5492 13.794 59.5492 8.918 59.4572 7.262C57.0652 7.17 52.5112 7.216 49.6132 7.262ZM62.8612 24.696C77.1672 24.696 80.7092 27.732 80.7092 33.758C80.7092 40.382 76.4772 42.82 62.8612 42.82C48.5552 42.82 45.0132 39.784 45.0132 33.758C45.0132 27.134 49.2452 24.696 62.8612 24.696ZM62.8612 37.116C72.5672 37.116 73.7172 36.012 73.7172 33.758C73.7172 31.642 72.5212 30.4 62.8612 30.4C53.1552 30.4 52.0052 31.504 52.0052 33.758C52.0052 35.874 53.2012 37.116 62.8612 37.116ZM123.624 22.028C123.808 23.638 123.808 25.846 123.624 27.64C119.668 27.916 89.4916 27.824 84.0636 27.64C83.8796 26.076 83.8796 23.73 84.0636 22.028C87.7896 21.982 93.9076 21.936 100.256 21.936V20.096C94.5976 20.096 89.3536 20.004 87.0536 19.912C86.8696 17.382 86.7776 12.276 87.0536 7.768H113.228V6.066H87.1456C86.9616 4.64 86.9616 1.834 87.1456 0.637998C100.532 0.499997 114.516 0.453998 120.174 0.591999C120.404 2.386 120.404 10.896 120.174 12.874H93.9996V14.576H120.634C120.818 16.232 120.726 18.394 120.634 19.912C119.3 20.004 113.734 20.096 107.432 20.096V21.982C114.93 21.982 121.6 22.028 123.624 22.028ZM86.4556 29.756C90.1356 29.572 116.908 29.526 121.094 29.756C121.37 33.574 121.232 40.014 121.094 42.222C119.438 42.314 115.712 42.314 114.056 42.222C113.964 39.922 114.01 37.806 114.056 35.506C103.89 35.506 89.9056 35.644 86.4556 35.506C86.2716 33.758 86.2716 31.504 86.4556 29.756Z" fill="white"/>
</g>
<defs>
<filter id="filter0_d_6_271" x="0.12085" y="0.45401" width="123.687" height="44.55" filterUnits="userSpaceOnUse" color-interpolation-filters="sRGB">
<feFlood flood-opacity="0" result="BackgroundImageFix"/>
<feColorMatrix in="SourceAlpha" type="matrix" values="0 0 0 0 0 0 0 0 0 0 0 0 0 0 0 0 0 0 127 0" result="hardAlpha"/>
<feOffset dy="2"/>
<feComposite in2="hardAlpha" operator="out"/>
<feColorMatrix type="matrix" values="0 0 0 0 0.353734 0 0 0 0 0.734433 0 0 0 0 0.919638 0 0 0 1 0"/>
<feBlend mode="normal" in2="BackgroundImageFix" result="effect1_dropShadow_6_271"/>
<feBlend mode="normal" in="SourceGraphic" in2="effect1_dropShadow_6_271" result="shape"/>
</filter>
</defs>
</svg>
