<svg width="302" height="46" viewBox="0 0 302 46" fill="none" xmlns="http://www.w3.org/2000/svg">
<g filter="url(#filter0_d_15_316)">
<path d="M40.0615 9.228C40.1995 10.976 40.1995 13.69 40.0615 15.438C39.3255 15.53 37.9455 15.576 36.1055 15.576C36.1055 19.164 36.0595 22.476 36.0135 24.362C34.5875 24.546 30.7695 24.5 29.1595 24.362C29.0215 20.406 29.0215 5.226 29.1595 1.73C30.4015 1.546 34.4035 1.5 36.0135 1.73C36.0595 3.432 36.0595 6.146 36.1055 9.136C37.7155 9.136 39.0955 9.182 40.0615 9.228ZM23.6855 22.614C20.4195 22.798 3.95148 22.844 0.225477 22.614C0.133477 19.072 0.133477 6.008 0.225477 2.512C2.01948 2.328 5.37748 2.374 6.94148 2.512V7.204C9.88548 7.158 14.0715 7.158 17.0155 7.204V2.512C18.8095 2.374 21.8915 2.374 23.6855 2.512C23.8235 6.652 23.8235 20.774 23.6855 22.614ZM6.94148 12.77V16.864C9.14948 16.956 15.0375 16.956 17.0155 16.864V12.77C14.0715 12.816 9.83948 12.816 6.94148 12.77ZM18.9475 25.88C33.2535 25.88 36.7955 28.916 36.7955 34.942C36.7955 41.566 32.5635 44.004 18.9475 44.004C4.64148 44.004 1.09948 40.968 1.09948 34.942C1.09948 28.318 5.33148 25.88 18.9475 25.88ZM18.9475 38.3C28.6535 38.3 29.8035 37.196 29.8035 34.942C29.8035 32.826 28.6075 31.584 18.9475 31.584C9.24148 31.584 8.09148 32.688 8.09148 34.942C8.09148 37.058 9.28748 38.3 18.9475 38.3ZM68.0259 14.932C69.1759 14.886 71.0159 14.886 72.9939 14.886V10.976C71.0619 10.976 69.2219 10.93 68.0259 10.884C67.8879 9.136 67.8879 6.468 68.0259 4.72C69.1759 4.674 71.0619 4.674 73.0399 4.674C73.0399 3.386 73.0399 2.374 73.0859 1.73C74.3279 1.546 78.3299 1.5 79.9399 1.73C80.0319 6.698 80.0779 20.268 79.9399 24.822C78.5139 25.006 74.6959 24.96 73.0859 24.822C73.0399 24.04 73.0399 22.752 73.0399 21.188C71.1079 21.188 69.2219 21.142 68.0259 21.096C67.8879 19.348 67.8879 16.68 68.0259 14.932ZM66.0019 22.154C62.9199 22.338 46.5899 22.384 43.0019 22.154C42.8179 17.14 42.8179 7.204 43.0019 2.512C45.8539 2.328 62.5059 2.328 66.0019 2.512C66.2319 7.526 66.2319 17.784 66.0019 22.154ZM49.6259 8.262C49.5339 9.918 49.5339 14.748 49.6259 16.404C52.0639 16.496 57.0319 16.542 59.4699 16.404C59.5619 14.794 59.5619 9.918 59.4699 8.262C57.0779 8.17 52.5239 8.216 49.6259 8.262ZM62.8739 25.696C77.1799 25.696 80.7219 28.732 80.7219 34.758C80.7219 41.382 76.4899 43.82 62.8739 43.82C48.5679 43.82 45.0259 40.784 45.0259 34.758C45.0259 28.134 49.2579 25.696 62.8739 25.696ZM62.8739 38.116C72.5799 38.116 73.7299 37.012 73.7299 34.758C73.7299 32.642 72.5339 31.4 62.8739 31.4C53.1679 31.4 52.0179 32.504 52.0179 34.758C52.0179 36.874 53.2139 38.116 62.8739 38.116ZM123.636 23.028C123.82 24.638 123.82 26.846 123.636 28.64C119.68 28.916 89.5043 28.824 84.0763 28.64C83.8923 27.076 83.8923 24.73 84.0763 23.028C87.8023 22.982 93.9203 22.936 100.268 22.936V21.096C94.6103 21.096 89.3663 21.004 87.0663 20.912C86.8823 18.382 86.7903 13.276 87.0663 8.768H113.24V7.066H87.1583C86.9743 5.64 86.9743 2.834 87.1583 1.638C100.544 1.5 114.528 1.454 120.186 1.592C120.416 3.386 120.416 11.896 120.186 13.874H94.0123V15.576H120.646C120.83 17.232 120.738 19.394 120.646 20.912C119.312 21.004 113.746 21.096 107.444 21.096V22.982C114.942 22.982 121.612 23.028 123.636 23.028ZM86.4683 30.756C90.1483 30.572 116.92 30.526 121.106 30.756C121.382 34.574 121.244 41.014 121.106 43.222C119.45 43.314 115.724 43.314 114.068 43.222C113.976 40.922 114.022 38.806 114.068 36.506C103.902 36.506 89.9183 36.644 86.4683 36.506C86.2843 34.758 86.2843 32.504 86.4683 30.756ZM176.209 9.964C176.347 11.712 176.347 14.426 176.209 16.174C175.473 16.266 174.093 16.312 172.253 16.312C172.253 20.038 172.207 23.488 172.161 25.328C170.735 25.512 166.917 25.466 165.307 25.328C165.169 21.372 165.169 5.226 165.307 1.73C166.549 1.546 170.551 1.5 172.161 1.73C172.207 3.524 172.207 6.56 172.253 9.872C173.863 9.872 175.243 9.918 176.209 9.964ZM140.467 25.512C139.271 24.546 137.109 22.108 136.327 20.728L145.895 13.184V8.538C141.985 8.538 138.581 8.538 137.201 8.446C137.017 6.606 137.017 4.168 137.201 2.512C140.927 2.42 153.393 2.328 161.627 2.512C161.765 4.26 161.765 6.836 161.627 8.446C159.925 8.492 156.705 8.492 153.117 8.538V13.046C156.429 15.116 159.649 17.094 162.961 19.21C162.271 20.59 160.385 23.35 159.327 24.362C156.107 22.522 152.795 20.498 149.621 18.336C146.585 20.866 143.273 23.396 140.467 25.512ZM138.213 27.398C141.939 27.214 167.975 27.168 172.161 27.398C172.391 31.262 172.299 41.014 172.161 43.268C170.735 43.406 167.009 43.406 165.353 43.268C165.261 40.922 165.353 36.322 165.353 33.516C155.187 33.516 141.663 33.654 138.213 33.516C138.029 31.768 138.029 29.146 138.213 27.398ZM209.601 13.368C206.933 13.368 203.667 13.322 202.333 13.276C202.195 11.528 202.195 8.676 202.333 6.928C203.621 6.882 206.887 6.882 209.601 6.882C209.647 4.582 209.647 2.696 209.693 1.73C210.935 1.546 214.937 1.5 216.547 1.73C216.639 6.698 216.685 20.268 216.547 24.822C215.121 25.006 211.303 24.96 209.693 24.822C209.647 22.89 209.601 18.106 209.601 13.368ZM191.937 15.53C188.809 18.566 185.359 21.648 182.369 24.224C181.219 23.304 178.873 20.728 178.091 19.348C180.851 16.772 184.945 13.046 188.211 10.056C188.165 7.618 188.211 4.03 188.257 2.19C189.499 1.96 193.777 1.914 195.387 2.19C195.433 3.984 195.479 7.572 195.433 10.01L205.921 17.876C205.277 19.302 203.207 22.108 202.149 23.12C198.929 20.912 195.295 18.198 191.937 15.53ZM199.481 25.88C213.787 25.88 217.329 28.916 217.329 34.942C217.329 41.566 213.097 44.004 199.481 44.004C185.175 44.004 181.633 40.968 181.633 34.942C181.633 28.318 185.865 25.88 199.481 25.88ZM199.481 38.116C209.187 38.116 210.337 37.058 210.337 34.942C210.337 32.964 209.141 31.768 199.481 31.768C189.775 31.768 188.625 32.826 188.625 34.942C188.625 36.92 189.821 38.116 199.481 38.116ZM238.256 4.95C242.258 4.95 245.846 4.996 247.686 5.088C247.778 6.698 247.824 9.596 247.686 11.206C243.638 11.252 223.398 11.344 220.684 11.206C220.5 9.458 220.5 6.79 220.684 5.088C221.604 5.042 225.928 4.996 230.942 4.996C230.896 3.662 230.942 2.006 231.08 0.809998C232.368 0.533999 236.554 0.579998 238.164 0.809998C238.256 2.006 238.302 3.57 238.256 4.95ZM261.486 17.922C261.67 19.67 261.67 22.706 261.486 24.454C260.75 24.546 259.324 24.592 257.392 24.592C257.392 32.826 257.346 40.6 257.254 43.13C255.828 43.314 251.964 43.268 250.354 43.13C250.17 37.794 250.216 7.066 250.354 1.73C251.596 1.454 255.644 1.5 257.254 1.73C257.346 4.306 257.392 10.746 257.392 17.83C259.094 17.83 260.474 17.876 261.486 17.922ZM234.668 13.184C244.282 13.184 247.502 17.186 247.502 27.536C247.502 37.886 244.282 41.888 234.668 41.888C225.054 41.888 221.834 37.886 221.834 27.536C221.834 17.186 225.054 13.184 234.668 13.184ZM234.668 36.23C239.498 36.23 240.924 34.252 240.924 27.536C240.924 20.82 239.498 18.842 234.668 18.842C229.838 18.842 228.412 20.82 228.412 27.536C228.412 34.252 229.838 36.23 234.668 36.23ZM294.28 43.13C294.096 37.794 294.142 7.066 294.28 1.73C295.522 1.454 299.57 1.5 301.18 1.73C301.364 8.032 301.364 37.656 301.18 43.13C299.754 43.314 295.89 43.268 294.28 43.13ZM279.514 40.048C279.514 36.644 279.56 12.678 279.514 9.32C276.662 9.412 267.094 9.412 263.598 9.32C263.414 7.526 263.414 4.72 263.598 3.018C267.278 2.834 282.32 2.788 286.368 3.018C286.69 8.354 286.782 34.712 286.506 40.048C285.31 40.278 281.17 40.232 279.514 40.048Z" fill="white"/>
</g>
<defs>
<filter id="filter0_d_15_316" x="0.133301" y="0.533997" width="301.231" height="45.47" filterUnits="userSpaceOnUse" color-interpolation-filters="sRGB">
<feFlood flood-opacity="0" result="BackgroundImageFix"/>
<feColorMatrix in="SourceAlpha" type="matrix" values="0 0 0 0 0 0 0 0 0 0 0 0 0 0 0 0 0 0 127 0" result="hardAlpha"/>
<feOffset dy="2"/>
<feComposite in2="hardAlpha" operator="out"/>
<feColorMatrix type="matrix" values="0 0 0 0 0.353734 0 0 0 0 0.734433 0 0 0 0 0.919638 0 0 0 1 0"/>
<feBlend mode="normal" in2="BackgroundImageFix" result="effect1_dropShadow_15_316"/>
<feBlend mode="normal" in="SourceGraphic" in2="effect1_dropShadow_15_316" result="shape"/>
</filter>
</defs>
</svg>
