<svg width="125" height="23" viewBox="0 0 125 23" fill="none" xmlns="http://www.w3.org/2000/svg">
<g filter="url(#filter0_d_15_330)">
<path d="M20.0616 4.196C20.1276 5.032 20.1276 6.33 20.0616 7.166C19.7096 7.21 19.0496 7.232 18.1696 7.232C18.1696 8.948 18.1476 10.532 18.1256 11.434C17.4436 11.522 15.6176 11.5 14.8476 11.434C14.7816 9.542 14.7816 2.282 14.8476 0.609999C15.4416 0.522 17.3556 0.499999 18.1256 0.609999C18.1476 1.424 18.1476 2.722 18.1696 4.152C18.9396 4.152 19.5996 4.174 20.0616 4.196ZM12.2296 10.598C10.6676 10.686 2.79159 10.708 1.00959 10.598C0.965586 8.904 0.965586 2.656 1.00959 0.983999C1.86759 0.895999 3.47359 0.918 4.22159 0.983999V3.228C5.62959 3.206 7.63159 3.206 9.03959 3.228V0.983999C9.89759 0.918 11.3716 0.918 12.2296 0.983999C12.2956 2.964 12.2956 9.718 12.2296 10.598ZM4.22159 5.89V7.848C5.27759 7.892 8.09359 7.892 9.03959 7.848V5.89C7.63159 5.912 5.60759 5.912 4.22159 5.89ZM9.96359 12.16C16.8056 12.16 18.4996 13.612 18.4996 16.494C18.4996 19.662 16.4756 20.828 9.96359 20.828C3.12159 20.828 1.42759 19.376 1.42759 16.494C1.42759 13.326 3.45159 12.16 9.96359 12.16ZM9.96359 18.1C14.6056 18.1 15.1556 17.572 15.1556 16.494C15.1556 15.482 14.5836 14.888 9.96359 14.888C5.32159 14.888 4.77159 15.416 4.77159 16.494C4.77159 17.506 5.34359 18.1 9.96359 18.1ZM33.4359 6.924C33.9859 6.902 34.8659 6.902 35.8119 6.902V5.032C34.8879 5.032 34.0079 5.01 33.4359 4.988C33.3699 4.152 33.3699 2.876 33.4359 2.04C33.9859 2.018 34.8879 2.018 35.8339 2.018C35.8339 1.402 35.8339 0.918 35.8559 0.609999C36.4499 0.522 38.3639 0.499999 39.1339 0.609999C39.1779 2.986 39.1999 9.476 39.1339 11.654C38.4519 11.742 36.6259 11.72 35.8559 11.654C35.8339 11.28 35.8339 10.664 35.8339 9.916C34.9099 9.916 34.0079 9.894 33.4359 9.872C33.3699 9.036 33.3699 7.76 33.4359 6.924ZM32.4679 10.378C30.9939 10.466 23.1839 10.488 21.4679 10.378C21.3799 7.98 21.3799 3.228 21.4679 0.983999C22.8319 0.895999 30.7959 0.895999 32.4679 0.983999C32.5779 3.382 32.5779 8.288 32.4679 10.378ZM24.6359 3.734C24.5919 4.526 24.5919 6.836 24.6359 7.628C25.8019 7.672 28.1779 7.694 29.3439 7.628C29.3879 6.858 29.3879 4.526 29.3439 3.734C28.1999 3.69 26.0219 3.712 24.6359 3.734ZM30.9719 12.072C37.8139 12.072 39.5079 13.524 39.5079 16.406C39.5079 19.574 37.4839 20.74 30.9719 20.74C24.1299 20.74 22.4359 19.288 22.4359 16.406C22.4359 13.238 24.4599 12.072 30.9719 12.072ZM30.9719 18.012C35.6139 18.012 36.1639 17.484 36.1639 16.406C36.1639 15.394 35.5919 14.8 30.9719 14.8C26.3299 14.8 25.7799 15.328 25.7799 16.406C25.7799 17.418 26.3519 18.012 30.9719 18.012ZM60.0322 10.796C60.1202 11.566 60.1202 12.622 60.0322 13.48C58.1402 13.612 43.7082 13.568 41.1122 13.48C41.0242 12.732 41.0242 11.61 41.1122 10.796C42.8942 10.774 45.8202 10.752 48.8562 10.752V9.872C46.1502 9.872 43.6422 9.828 42.5422 9.784C42.4542 8.574 42.4102 6.132 42.5422 3.976H55.0602V3.162H42.5862C42.4982 2.48 42.4982 1.138 42.5862 0.565999C48.9882 0.499999 55.6762 0.477999 58.3822 0.544C58.4922 1.402 58.4922 5.472 58.3822 6.418H45.8642V7.232H58.6022C58.6902 8.024 58.6462 9.058 58.6022 9.784C57.9642 9.828 55.3022 9.872 52.2882 9.872V10.774C55.8742 10.774 59.0642 10.796 60.0322 10.796ZM42.2562 14.492C44.0162 14.404 56.8202 14.382 58.8222 14.492C58.9542 16.318 58.8882 19.398 58.8222 20.454C58.0302 20.498 56.2482 20.498 55.4562 20.454C55.4122 19.354 55.4342 18.342 55.4562 17.242C50.5942 17.242 43.9062 17.308 42.2562 17.242C42.1682 16.406 42.1682 15.328 42.2562 14.492ZM85.3956 3.976C85.4616 4.812 85.4616 6.11 85.3956 6.946C85.0436 6.99 84.3836 7.012 83.5036 7.012C83.5036 8.53 83.4816 9.916 83.4596 10.774C82.7776 10.862 80.9516 10.84 80.1816 10.774C80.1156 8.882 80.1156 2.282 80.1816 0.609999C80.7756 0.522 82.6896 0.499999 83.4596 0.609999C83.4816 1.424 83.4816 2.634 83.5036 3.932C84.2736 3.932 84.9336 3.954 85.3956 3.976ZM78.2236 9.608C76.4636 9.674 68.3456 9.696 66.3436 9.608C66.2336 7.518 66.2336 2.7 66.3436 0.983999C67.0256 0.895999 68.8296 0.918 69.6216 0.983999C69.6656 2.524 69.6436 5.494 69.6216 6.704C71.1836 6.66 76.5736 6.66 78.2236 6.704C78.3116 7.54 78.3116 8.772 78.2236 9.608ZM67.1136 11.764C68.4776 11.676 82.8656 11.698 83.4596 11.764C83.5476 13.502 83.5476 18.826 83.4596 20.476C81.9856 20.608 68.8296 20.63 67.1136 20.476C67.0036 18.078 67.0476 13.986 67.1136 11.764ZM80.2256 17.726C80.2696 17.088 80.2696 15.328 80.2256 14.536C78.9936 14.47 71.7996 14.492 70.3476 14.536C70.3036 15.218 70.2816 16.846 70.3476 17.726C71.3596 17.792 79.3016 17.77 80.2256 17.726ZM101.168 20.41C101.08 17.858 101.102 3.162 101.168 0.609999C101.762 0.477999 103.698 0.499999 104.468 0.609999C104.556 3.624 104.556 17.792 104.468 20.41C103.786 20.498 101.938 20.476 101.168 20.41ZM94.1059 18.936C94.1059 17.308 94.1279 5.846 94.1059 4.24C92.7419 4.284 88.1659 4.284 86.4939 4.24C86.4059 3.382 86.4059 2.04 86.4939 1.226C88.2539 1.138 95.4479 1.116 97.3839 1.226C97.5379 3.778 97.5819 16.384 97.4499 18.936C96.8779 19.046 94.8979 19.024 94.1059 18.936ZM121.406 20.41C121.318 17.858 121.34 3.162 121.406 0.609999C122 0.477999 123.936 0.499999 124.706 0.609999C124.794 3.624 124.794 17.792 124.706 20.41C124.024 20.498 122.176 20.476 121.406 20.41ZM114.344 18.936C114.344 17.308 114.366 5.846 114.344 4.24C112.98 4.284 108.404 4.284 106.732 4.24C106.644 3.382 106.644 2.04 106.732 1.226C108.492 1.138 115.686 1.116 117.622 1.226C117.776 3.778 117.82 16.384 117.688 18.936C117.116 19.046 115.136 19.024 114.344 18.936Z" fill="white"/>
</g>
<defs>
<filter id="filter0_d_15_330" x="0.96582" y="0.477997" width="123.828" height="22.35" filterUnits="userSpaceOnUse" color-interpolation-filters="sRGB">
<feFlood flood-opacity="0" result="BackgroundImageFix"/>
<feColorMatrix in="SourceAlpha" type="matrix" values="0 0 0 0 0 0 0 0 0 0 0 0 0 0 0 0 0 0 127 0" result="hardAlpha"/>
<feOffset dy="2"/>
<feComposite in2="hardAlpha" operator="out"/>
<feColorMatrix type="matrix" values="0 0 0 0 0.264799 0 0 0 0 0.649061 0 0 0 0 0.846529 0 0 0 1 0"/>
<feBlend mode="normal" in2="BackgroundImageFix" result="effect1_dropShadow_15_330"/>
<feBlend mode="normal" in="SourceGraphic" in2="effect1_dropShadow_15_330" result="shape"/>
</filter>
</defs>
</svg>
